// === Articulação: Snare_Edge ===

// --- Mic: Overhead_L ---
<group> seq_position=1 // Round-Robin: A
<region> sample=Snare_Edge_A_vel01_mic-Overhead_L.wav lovel=0 hivel=9
<region> sample=Snare_Edge_A_vel02_mic-Overhead_L.wav lovel=10 hivel=19
<region> sample=Snare_Edge_A_vel03_mic-Overhead_L.wav lovel=20 hivel=29
<region> sample=Snare_Edge_A_vel04_mic-Overhead_L.wav lovel=30 hivel=39
<region> sample=Snare_Edge_A_vel05_mic-Overhead_L.wav lovel=40 hivel=49
<region> sample=Snare_Edge_A_vel06_mic-Overhead_L.wav lovel=50 hivel=59
<region> sample=Snare_Edge_A_vel07_mic-Overhead_L.wav lovel=60 hivel=69
<region> sample=Snare_Edge_A_vel08_mic-Overhead_L.wav lovel=70 hivel=79
<region> sample=Snare_Edge_A_vel09_mic-Overhead_L.wav lovel=80 hivel=89
<region> sample=Snare_Edge_A_vel10_mic-Overhead_L.wav lovel=90 hivel=99
<region> sample=Snare_Edge_A_vel11_mic-Overhead_L.wav lovel=100 hivel=109
<region> sample=Snare_Edge_A_vel12_mic-Overhead_L.wav lovel=110 hivel=127
<group> seq_position=2 // Round-Robin: B
<region> sample=Snare_Edge_B_vel01_mic-Overhead_L.wav lovel=0 hivel=9
<region> sample=Snare_Edge_B_vel02_mic-Overhead_L.wav lovel=10 hivel=19
<region> sample=Snare_Edge_B_vel03_mic-Overhead_L.wav lovel=20 hivel=29
<region> sample=Snare_Edge_B_vel04_mic-Overhead_L.wav lovel=30 hivel=39
<region> sample=Snare_Edge_B_vel05_mic-Overhead_L.wav lovel=40 hivel=49
<region> sample=Snare_Edge_B_vel06_mic-Overhead_L.wav lovel=50 hivel=59
<region> sample=Snare_Edge_B_vel07_mic-Overhead_L.wav lovel=60 hivel=69
<region> sample=Snare_Edge_B_vel08_mic-Overhead_L.wav lovel=70 hivel=79
<region> sample=Snare_Edge_B_vel09_mic-Overhead_L.wav lovel=80 hivel=89
<region> sample=Snare_Edge_B_vel10_mic-Overhead_L.wav lovel=90 hivel=99
<region> sample=Snare_Edge_B_vel11_mic-Overhead_L.wav lovel=100 hivel=109
<region> sample=Snare_Edge_B_vel12_mic-Overhead_L.wav lovel=110 hivel=127
<group> seq_position=3 // Round-Robin: C
<region> sample=Snare_Edge_C_vel01_mic-Overhead_L.wav lovel=0 hivel=9
<region> sample=Snare_Edge_C_vel02_mic-Overhead_L.wav lovel=10 hivel=19
<region> sample=Snare_Edge_C_vel03_mic-Overhead_L.wav lovel=20 hivel=29
<region> sample=Snare_Edge_C_vel04_mic-Overhead_L.wav lovel=30 hivel=39
<region> sample=Snare_Edge_C_vel05_mic-Overhead_L.wav lovel=40 hivel=49
<region> sample=Snare_Edge_C_vel06_mic-Overhead_L.wav lovel=50 hivel=59
<region> sample=Snare_Edge_C_vel07_mic-Overhead_L.wav lovel=60 hivel=69
<region> sample=Snare_Edge_C_vel08_mic-Overhead_L.wav lovel=70 hivel=79
<region> sample=Snare_Edge_C_vel09_mic-Overhead_L.wav lovel=80 hivel=89
<region> sample=Snare_Edge_C_vel10_mic-Overhead_L.wav lovel=90 hivel=99
<region> sample=Snare_Edge_C_vel11_mic-Overhead_L.wav lovel=100 hivel=109
<region> sample=Snare_Edge_C_vel12_mic-Overhead_L.wav lovel=110 hivel=127
<group> seq_position=4 // Round-Robin: D
<region> sample=Snare_Edge_D_vel01_mic-Overhead_L.wav lovel=0 hivel=9
<region> sample=Snare_Edge_D_vel02_mic-Overhead_L.wav lovel=10 hivel=19
<region> sample=Snare_Edge_D_vel03_mic-Overhead_L.wav lovel=20 hivel=29
<region> sample=Snare_Edge_D_vel04_mic-Overhead_L.wav lovel=30 hivel=39
<region> sample=Snare_Edge_D_vel05_mic-Overhead_L.wav lovel=40 hivel=49
<region> sample=Snare_Edge_D_vel06_mic-Overhead_L.wav lovel=50 hivel=59
<region> sample=Snare_Edge_D_vel07_mic-Overhead_L.wav lovel=60 hivel=69
<region> sample=Snare_Edge_D_vel08_mic-Overhead_L.wav lovel=70 hivel=79
<region> sample=Snare_Edge_D_vel09_mic-Overhead_L.wav lovel=80 hivel=89
<region> sample=Snare_Edge_D_vel10_mic-Overhead_L.wav lovel=90 hivel=99
<region> sample=Snare_Edge_D_vel11_mic-Overhead_L.wav lovel=100 hivel=109
<region> sample=Snare_Edge_D_vel12_mic-Overhead_L.wav lovel=110 hivel=127

// --- Mic: Overhead_R ---
<group> seq_position=1 // Round-Robin: A
<region> sample=Snare_Edge_A_vel01_mic-Overhead_R.wav lovel=0 hivel=9
<region> sample=Snare_Edge_A_vel02_mic-Overhead_R.wav lovel=10 hivel=19
<region> sample=Snare_Edge_A_vel03_mic-Overhead_R.wav lovel=20 hivel=29
<region> sample=Snare_Edge_A_vel04_mic-Overhead_R.wav lovel=30 hivel=39
<region> sample=Snare_Edge_A_vel05_mic-Overhead_R.wav lovel=40 hivel=49
<region> sample=Snare_Edge_A_vel06_mic-Overhead_R.wav lovel=50 hivel=59
<region> sample=Snare_Edge_A_vel07_mic-Overhead_R.wav lovel=60 hivel=69
<region> sample=Snare_Edge_A_vel08_mic-Overhead_R.wav lovel=70 hivel=79
<region> sample=Snare_Edge_A_vel09_mic-Overhead_R.wav lovel=80 hivel=89
<region> sample=Snare_Edge_A_vel10_mic-Overhead_R.wav lovel=90 hivel=99
<region> sample=Snare_Edge_A_vel11_mic-Overhead_R.wav lovel=100 hivel=109
<region> sample=Snare_Edge_A_vel12_mic-Overhead_R.wav lovel=110 hivel=127
<group> seq_position=2 // Round-Robin: B
<region> sample=Snare_Edge_B_vel01_mic-Overhead_R.wav lovel=0 hivel=9
<region> sample=Snare_Edge_B_vel02_mic-Overhead_R.wav lovel=10 hivel=19
<region> sample=Snare_Edge_B_vel03_mic-Overhead_R.wav lovel=20 hivel=29
<region> sample=Snare_Edge_B_vel04_mic-Overhead_R.wav lovel=30 hivel=39
<region> sample=Snare_Edge_B_vel05_mic-Overhead_R.wav lovel=40 hivel=49
<region> sample=Snare_Edge_B_vel06_mic-Overhead_R.wav lovel=50 hivel=59
<region> sample=Snare_Edge_B_vel07_mic-Overhead_R.wav lovel=60 hivel=69
<region> sample=Snare_Edge_B_vel08_mic-Overhead_R.wav lovel=70 hivel=79
<region> sample=Snare_Edge_B_vel09_mic-Overhead_R.wav lovel=80 hivel=89
<region> sample=Snare_Edge_B_vel10_mic-Overhead_R.wav lovel=90 hivel=99
<region> sample=Snare_Edge_B_vel11_mic-Overhead_R.wav lovel=100 hivel=109
<region> sample=Snare_Edge_B_vel12_mic-Overhead_R.wav lovel=110 hivel=127
<group> seq_position=3 // Round-Robin: C
<region> sample=Snare_Edge_C_vel01_mic-Overhead_R.wav lovel=0 hivel=9
<region> sample=Snare_Edge_C_vel02_mic-Overhead_R.wav lovel=10 hivel=19
<region> sample=Snare_Edge_C_vel03_mic-Overhead_R.wav lovel=20 hivel=29
<region> sample=Snare_Edge_C_vel04_mic-Overhead_R.wav lovel=30 hivel=39
<region> sample=Snare_Edge_C_vel05_mic-Overhead_R.wav lovel=40 hivel=49
<region> sample=Snare_Edge_C_vel06_mic-Overhead_R.wav lovel=50 hivel=59
<region> sample=Snare_Edge_C_vel07_mic-Overhead_R.wav lovel=60 hivel=69
<region> sample=Snare_Edge_C_vel08_mic-Overhead_R.wav lovel=70 hivel=79
<region> sample=Snare_Edge_C_vel09_mic-Overhead_R.wav lovel=80 hivel=89
<region> sample=Snare_Edge_C_vel10_mic-Overhead_R.wav lovel=90 hivel=99
<region> sample=Snare_Edge_C_vel11_mic-Overhead_R.wav lovel=100 hivel=109
<region> sample=Snare_Edge_C_vel12_mic-Overhead_R.wav lovel=110 hivel=127
<group> seq_position=4 // Round-Robin: D
<region> sample=Snare_Edge_D_vel01_mic-Overhead_R.wav lovel=0 hivel=9
<region> sample=Snare_Edge_D_vel02_mic-Overhead_R.wav lovel=10 hivel=19
<region> sample=Snare_Edge_D_vel03_mic-Overhead_R.wav lovel=20 hivel=29
<region> sample=Snare_Edge_D_vel04_mic-Overhead_R.wav lovel=30 hivel=39
<region> sample=Snare_Edge_D_vel05_mic-Overhead_R.wav lovel=40 hivel=49
<region> sample=Snare_Edge_D_vel06_mic-Overhead_R.wav lovel=50 hivel=59
<region> sample=Snare_Edge_D_vel07_mic-Overhead_R.wav lovel=60 hivel=69
<region> sample=Snare_Edge_D_vel08_mic-Overhead_R.wav lovel=70 hivel=79
<region> sample=Snare_Edge_D_vel09_mic-Overhead_R.wav lovel=80 hivel=89
<region> sample=Snare_Edge_D_vel10_mic-Overhead_R.wav lovel=90 hivel=99
<region> sample=Snare_Edge_D_vel11_mic-Overhead_R.wav lovel=100 hivel=109
<region> sample=Snare_Edge_D_vel12_mic-Overhead_R.wav lovel=110 hivel=127

// --- Mic: Sanre_Top ---
<group> seq_position=1 // Round-Robin: A
<region> sample=Snare_Edge_A_vel01_mic-Sanre_Top.wav lovel=0 hivel=9
<region> sample=Snare_Edge_A_vel02_mic-Sanre_Top.wav lovel=10 hivel=19
<region> sample=Snare_Edge_A_vel03_mic-Sanre_Top.wav lovel=20 hivel=29
<region> sample=Snare_Edge_A_vel04_mic-Sanre_Top.wav lovel=30 hivel=39
<region> sample=Snare_Edge_A_vel05_mic-Sanre_Top.wav lovel=40 hivel=49
<region> sample=Snare_Edge_A_vel06_mic-Sanre_Top.wav lovel=50 hivel=59
<region> sample=Snare_Edge_A_vel07_mic-Sanre_Top.wav lovel=60 hivel=69
<region> sample=Snare_Edge_A_vel08_mic-Sanre_Top.wav lovel=70 hivel=79
<region> sample=Snare_Edge_A_vel09_mic-Sanre_Top.wav lovel=80 hivel=89
<region> sample=Snare_Edge_A_vel10_mic-Sanre_Top.wav lovel=90 hivel=99
<region> sample=Snare_Edge_A_vel11_mic-Sanre_Top.wav lovel=100 hivel=109
<region> sample=Snare_Edge_A_vel12_mic-Sanre_Top.wav lovel=110 hivel=127
<group> seq_position=2 // Round-Robin: B
<region> sample=Snare_Edge_B_vel01_mic-Sanre_Top.wav lovel=0 hivel=9
<region> sample=Snare_Edge_B_vel02_mic-Sanre_Top.wav lovel=10 hivel=19
<region> sample=Snare_Edge_B_vel03_mic-Sanre_Top.wav lovel=20 hivel=29
<region> sample=Snare_Edge_B_vel04_mic-Sanre_Top.wav lovel=30 hivel=39
<region> sample=Snare_Edge_B_vel05_mic-Sanre_Top.wav lovel=40 hivel=49
<region> sample=Snare_Edge_B_vel06_mic-Sanre_Top.wav lovel=50 hivel=59
<region> sample=Snare_Edge_B_vel07_mic-Sanre_Top.wav lovel=60 hivel=69
<region> sample=Snare_Edge_B_vel08_mic-Sanre_Top.wav lovel=70 hivel=79
<region> sample=Snare_Edge_B_vel09_mic-Sanre_Top.wav lovel=80 hivel=89
<region> sample=Snare_Edge_B_vel10_mic-Sanre_Top.wav lovel=90 hivel=99
<region> sample=Snare_Edge_B_vel11_mic-Sanre_Top.wav lovel=100 hivel=109
<region> sample=Snare_Edge_B_vel12_mic-Sanre_Top.wav lovel=110 hivel=127
<group> seq_position=3 // Round-Robin: C
<region> sample=Snare_Edge_C_vel01_mic-Sanre_Top.wav lovel=0 hivel=9
<region> sample=Snare_Edge_C_vel02_mic-Sanre_Top.wav lovel=10 hivel=19
<region> sample=Snare_Edge_C_vel03_mic-Sanre_Top.wav lovel=20 hivel=29
<region> sample=Snare_Edge_C_vel04_mic-Sanre_Top.wav lovel=30 hivel=39
<region> sample=Snare_Edge_C_vel05_mic-Sanre_Top.wav lovel=40 hivel=49
<region> sample=Snare_Edge_C_vel06_mic-Sanre_Top.wav lovel=50 hivel=59
<region> sample=Snare_Edge_C_vel07_mic-Sanre_Top.wav lovel=60 hivel=69
<region> sample=Snare_Edge_C_vel08_mic-Sanre_Top.wav lovel=70 hivel=79
<region> sample=Snare_Edge_C_vel09_mic-Sanre_Top.wav lovel=80 hivel=89
<region> sample=Snare_Edge_C_vel10_mic-Sanre_Top.wav lovel=90 hivel=99
<region> sample=Snare_Edge_C_vel11_mic-Sanre_Top.wav lovel=100 hivel=109
<region> sample=Snare_Edge_C_vel12_mic-Sanre_Top.wav lovel=110 hivel=127
<group> seq_position=4 // Round-Robin: D
<region> sample=Snare_Edge_D_vel01_mic-Sanre_Top.wav lovel=0 hivel=9
<region> sample=Snare_Edge_D_vel02_mic-Sanre_Top.wav lovel=10 hivel=19
<region> sample=Snare_Edge_D_vel03_mic-Sanre_Top.wav lovel=20 hivel=29
<region> sample=Snare_Edge_D_vel04_mic-Sanre_Top.wav lovel=30 hivel=39
<region> sample=Snare_Edge_D_vel05_mic-Sanre_Top.wav lovel=40 hivel=49
<region> sample=Snare_Edge_D_vel06_mic-Sanre_Top.wav lovel=50 hivel=59
<region> sample=Snare_Edge_D_vel07_mic-Sanre_Top.wav lovel=60 hivel=69
<region> sample=Snare_Edge_D_vel08_mic-Sanre_Top.wav lovel=70 hivel=79
<region> sample=Snare_Edge_D_vel09_mic-Sanre_Top.wav lovel=80 hivel=89
<region> sample=Snare_Edge_D_vel10_mic-Sanre_Top.wav lovel=90 hivel=99
<region> sample=Snare_Edge_D_vel11_mic-Sanre_Top.wav lovel=100 hivel=109
<region> sample=Snare_Edge_D_vel12_mic-Sanre_Top.wav lovel=110 hivel=127

// --- Mic: Snare_Bottom ---
<group> seq_position=1 // Round-Robin: A
<region> sample=Snare_Edge_A_vel01_mic-Snare_Bottom.wav lovel=0 hivel=9
<region> sample=Snare_Edge_A_vel02_mic-Snare_Bottom.wav lovel=10 hivel=19
<region> sample=Snare_Edge_A_vel03_mic-Snare_Bottom.wav lovel=20 hivel=29
<region> sample=Snare_Edge_A_vel04_mic-Snare_Bottom.wav lovel=30 hivel=39
<region> sample=Snare_Edge_A_vel05_mic-Snare_Bottom.wav lovel=40 hivel=49
<region> sample=Snare_Edge_A_vel06_mic-Snare_Bottom.wav lovel=50 hivel=59
<region> sample=Snare_Edge_A_vel07_mic-Snare_Bottom.wav lovel=60 hivel=69
<region> sample=Snare_Edge_A_vel08_mic-Snare_Bottom.wav lovel=70 hivel=79
<region> sample=Snare_Edge_A_vel09_mic-Snare_Bottom.wav lovel=80 hivel=89
<region> sample=Snare_Edge_A_vel10_mic-Snare_Bottom.wav lovel=90 hivel=99
<region> sample=Snare_Edge_A_vel11_mic-Snare_Bottom.wav lovel=100 hivel=109
<region> sample=Snare_Edge_A_vel12_mic-Snare_Bottom.wav lovel=110 hivel=127
<group> seq_position=2 // Round-Robin: B
<region> sample=Snare_Edge_B_vel01_mic-Snare_Bottom.wav lovel=0 hivel=9
<region> sample=Snare_Edge_B_vel02_mic-Snare_Bottom.wav lovel=10 hivel=19
<region> sample=Snare_Edge_B_vel03_mic-Snare_Bottom.wav lovel=20 hivel=29
<region> sample=Snare_Edge_B_vel04_mic-Snare_Bottom.wav lovel=30 hivel=39
<region> sample=Snare_Edge_B_vel05_mic-Snare_Bottom.wav lovel=40 hivel=49
<region> sample=Snare_Edge_B_vel06_mic-Snare_Bottom.wav lovel=50 hivel=59
<region> sample=Snare_Edge_B_vel07_mic-Snare_Bottom.wav lovel=60 hivel=69
<region> sample=Snare_Edge_B_vel08_mic-Snare_Bottom.wav lovel=70 hivel=79
<region> sample=Snare_Edge_B_vel09_mic-Snare_Bottom.wav lovel=80 hivel=89
<region> sample=Snare_Edge_B_vel10_mic-Snare_Bottom.wav lovel=90 hivel=99
<region> sample=Snare_Edge_B_vel11_mic-Snare_Bottom.wav lovel=100 hivel=109
<region> sample=Snare_Edge_B_vel12_mic-Snare_Bottom.wav lovel=110 hivel=127
<group> seq_position=3 // Round-Robin: C
<region> sample=Snare_Edge_C_vel01_mic-Snare_Bottom.wav lovel=0 hivel=9
<region> sample=Snare_Edge_C_vel02_mic-Snare_Bottom.wav lovel=10 hivel=19
<region> sample=Snare_Edge_C_vel03_mic-Snare_Bottom.wav lovel=20 hivel=29
<region> sample=Snare_Edge_C_vel04_mic-Snare_Bottom.wav lovel=30 hivel=39
<region> sample=Snare_Edge_C_vel05_mic-Snare_Bottom.wav lovel=40 hivel=49
<region> sample=Snare_Edge_C_vel06_mic-Snare_Bottom.wav lovel=50 hivel=59
<region> sample=Snare_Edge_C_vel07_mic-Snare_Bottom.wav lovel=60 hivel=69
<region> sample=Snare_Edge_C_vel08_mic-Snare_Bottom.wav lovel=70 hivel=79
<region> sample=Snare_Edge_C_vel09_mic-Snare_Bottom.wav lovel=80 hivel=89
<region> sample=Snare_Edge_C_vel10_mic-Snare_Bottom.wav lovel=90 hivel=99
<region> sample=Snare_Edge_C_vel11_mic-Snare_Bottom.wav lovel=100 hivel=109
<region> sample=Snare_Edge_C_vel12_mic-Snare_Bottom.wav lovel=110 hivel=127
<group> seq_position=4 // Round-Robin: D
<region> sample=Snare_Edge_D_vel01_mic-Snare_Bottom.wav lovel=0 hivel=9
<region> sample=Snare_Edge_D_vel02_mic-Snare_Bottom.wav lovel=10 hivel=19
<region> sample=Snare_Edge_D_vel03_mic-Snare_Bottom.wav lovel=20 hivel=29
<region> sample=Snare_Edge_D_vel04_mic-Snare_Bottom.wav lovel=30 hivel=39
<region> sample=Snare_Edge_D_vel05_mic-Snare_Bottom.wav lovel=40 hivel=49
<region> sample=Snare_Edge_D_vel06_mic-Snare_Bottom.wav lovel=50 hivel=59
<region> sample=Snare_Edge_D_vel07_mic-Snare_Bottom.wav lovel=60 hivel=69
<region> sample=Snare_Edge_D_vel08_mic-Snare_Bottom.wav lovel=70 hivel=79
<region> sample=Snare_Edge_D_vel09_mic-Snare_Bottom.wav lovel=80 hivel=89
<region> sample=Snare_Edge_D_vel10_mic-Snare_Bottom.wav lovel=90 hivel=99
<region> sample=Snare_Edge_D_vel11_mic-Snare_Bottom.wav lovel=100 hivel=109
<region> sample=Snare_Edge_D_vel12_mic-Snare_Bottom.wav lovel=110 hivel=127
